<svg width="512" height="512" viewBox="0 0 512 512" fill="none" xmlns="http://www.w3.org/2000/svg">
  <rect width="512" height="512" rx="120" fill="#E6E9EF"/>
  <path d="M340 160C340 160 310 140 260 140C193.726 140 140 193.726 140 260C140 326.274 193.726 380 260 380C310 380 340 360 340 360C310 380 270 390 230 390C158.203 390 100 331.797 100 260C100 188.203 158.203 130 230 130C270 130 310 140 340 160Z" fill="#F27D26"/>
  <circle cx="360" cy="200" r="20" fill="#F27D26" opacity="0.6"/>
  <circle cx="390" cy="240" r="12" fill="#F27D26" opacity="0.4"/>
</svg>
